# xmcd
#
# Track frame offsets: 
#        150
#        9296
#        21225
#        33614
#        46043
#        58792
#        70788
#        84044
#        95103
#        104759
#        115643
#        126117
#        139673
#
# Disc length: 1981 seconds
#
# Revision: 0
# Processed by: cddbd v1.5.2PL0 Copyright (c) Steve Scherf et al.
# Submitted via: ExactAudioCopy v0.99pb4
#
DISCID=a507bb0d
DTITLE=Adrian and Travis Hughes - The Awakening
DYEAR=1997
DGENRE=Country
TTITLE0=The Awakening
TTITLE1=Caravan
TTITLE2=Times Are Getting Better
TTITLE3=Over the Rainbow
TTITLE4=Suki Aki
TTITLE5=See You In My Dreams
TTITLE6=My Old Kentucky Home
TTITLE7=Ischemic
TTITLE8=Birth of the Blues
TTITLE9=Keys to the Highway
TTITLE10=Sleep
TTITLE11=Will the Circle be Unbroken
TTITLE12=Amazing Grace
EXTD=
EXTT0=
EXTT1=
EXTT2=
EXTT3=
EXTT4=
EXTT5=
EXTT6=
EXTT7=
EXTT8=
EXTT9=
EXTT10=
EXTT11=
EXTT12=
PLAYORDER=
